PathFileType	4	(X/Y/Z)	C:\Users\Basilio\Documents\Thesis Gigler\squatting_fais\c3dfiles\019\SJ_pre5\markers_experimental.trc
DataRate	CameraRate	NumFrames	NumMarkers	Units	OrigDataRate	OrigDataStartFrame	OrigNumFrames
200.000000	200.000000	4	59	mm	200.000000	814	1303
Frame#	Time	FHD			LBHD			RBHD			C7			T10			CLAV			LSHO			LUUPA			LMUPA			LDUPA			LLEP			LMEP			LRAD			LUL			LRFIN			RSHO			RUPA1			RMUPA			RDUPA			RLEP			RMEP			RRAD			RUL			RUFIN			LASI			USACR			LSACR			RSACR			LTHI1			LTHI2			LTHI3			LTHI4			LLFC			LTIB1			LTIB2			LTIB3			LTIB4			LLMAL			LMMAL			LHEE			LMT1			LMT2			LMT5			RTHI			RTHI2			RTHI3			RTHI4			RLFC			RTIB1			RTIB2			RTIB3			RTIB4			RLMAL			RMMAL			RHEE			RMT1			RMT2			RMT5			RASI			
		X1	Y1	Z1	X2	Y2	Z2	X3	Y3	Z3	X4	Y4	Z4	X5	Y5	Z5	X6	Y6	Z6	X7	Y7	Z7	X8	Y8	Z8	X9	Y9	Z9	X10	Y10	Z10	X11	Y11	Z11	X12	Y12	Z12	X13	Y13	Z13	X14	Y14	Z14	X15	Y15	Z15	X16	Y16	Z16	X17	Y17	Z17	X18	Y18	Z18	X19	Y19	Z19	X20	Y20	Z20	X21	Y21	Z21	X22	Y22	Z22	X23	Y23	Z23	X24	Y24	Z24	X25	Y25	Z25	X26	Y26	Z26	X27	Y27	Z27	X28	Y28	Z28	X29	Y29	Z29	X30	Y30	Z30	X31	Y31	Z31	X32	Y32	Z32	X33	Y33	Z33	X34	Y34	Z34	X35	Y35	Z35	X36	Y36	Z36	X37	Y37	Z37	X38	Y38	Z38	X39	Y39	Z39	X40	Y40	Z40	X41	Y41	Z41	X42	Y42	Z42	X43	Y43	Z43	X44	Y44	Z44	X45	Y45	Z45	X46	Y46	Z46	X47	Y47	Z47	X48	Y48	Z48	X49	Y49	Z49	X50	Y50	Z50	X51	Y51	Z51	X52	Y52	Z52	X53	Y53	Z53	X54	Y54	Z54	X55	Y55	Z55	X56	Y56	Z56	X57	Y57	Z57	X58	Y58	Z58	X59	Y59	Z59	

815	4.07	11.51777076721192	2078.019287109375	-864.046813964844	-136.5560913085938	2091.832763671875	-997.1778564453127	-130.441390991211	2082.154296875	-857.7597656250002	-211.6536102294922	1921.642578125	-930.6130981445315	-296.6560363769532	1639.297729492188	-924.3105468750002	-76.96351623535158	1860.207763671875	-933.2770996093752	-152.1323547363282	1910.324829101563	-1076.430786132813	-195.2135467529297	1786.244262695313	-1194.794799804688	-189.6961975097657	1740.380615234375	-1177.046997070313	-220.0455627441407	1733.679321289063	-1227.906982421875	-271.5199279785157	1691.339477539063	-1280.377197265625	-333.6770629882813	1686.790405273438	-1248.4814453125	-255.2823333740235	1472.780639648438	-1138.990600585938	-234.5018463134766	1451.702758789063	-1200.106811523438	-217.0504608154297	1437.252197265625	-1100.253662109375	-144.2610626220703	1908.724243164063	-800.1802978515627	-240.0254669189454	1804.017700195313	-659.1721801757814	-209.7505035400391	1763.633666992188	-655.4335327148439	-254.0597534179688	1748.078491210938	-618.0752563476564	-264.3017272949219	1674.12060546875	-584.5473022460939	-326.1040649414063	1677.181030273438	-608.8631591796876	-243.1774444580079	1452.913330078125	-715.6439208984376	-211.837387084961	1434.514892578125	-662.4215698242189	-198.8129577636719	1416.650512695313	-754.9697265625001	-198.4275512695313	1424.131713867188	-1036.165771484375	-330.9423828125001	1509.341552734375	-923.677429199219	-345.2542114257813	1478.490966796875	-951.376159667969	-339.6839599609376	1478.682373046875	-896.0332031250002	-262.0327148437501	1168.976196289063	-1131.668090820313	-217.8833618164063	1096.144897460938	-1137.932250976563	-172.2131958007813	1104.854858398438	-1125.240844726563	-238.9356689453126	1039.218994140625	-1130.930908203125	-234.9797058105469	940.590759277344	-1126.334838867188	-182.9630126953125	799.8884277343752	-1116.716064453125	-245.9217224121094	761.7451782226564	-1163.742553710938	-206.2914123535157	755.9273681640626	-1148.345825195313	-202.1068267822266	672.8925170898439	-1125.450927734375	-277.5411987304688	541.9345703125001	-1150.430419921875	-242.1385803222657	542.9282226562501	-1075.04296875	-330.9772338867188	509.1453247070314	-1096.3759765625	-121.6178512573242	451.2456359863282	-1105.976318359375	-123.8706436157227	448.0851440429689	-1144.818359375	-177.1505126953125	427.7596435546876	-1186.5556640625	-259.2494812011719	1231.4814453125	-731.7940063476564	-222.8587951660157	1174.685302734375	-723.3787841796876	-191.6027526855469	1175.10595703125	-738.4526367187501	-247.4041442871094	1097.779541015625	-716.9745483398439	-277.7236022949219	934.9065551757815	-730.6584472656251	-222.4219665527344	751.3714599609376	-743.9160156250001	-287.3292541503907	677.2251586914064	-692.0239868164064	-245.9329986572266	673.7417602539064	-711.9274902343751	-243.7073516845704	625.0875854492189	-745.6440429687501	-313.9922180175782	539.3522949218751	-707.8992919921876	-275.1941223144532	536.5670776367189	-773.785095214844	-360.9948120117188	510.1407470703126	-768.6578369140627	-165.0761260986328	430.3769836425782	-725.9072875976564	-174.9881896972657	437.101287841797	-683.1724243164064	-230.2281341552735	427.6319580078126	-646.9182128906251	-220.4207153320313	1421.480102539063	-732.2723999023439	
816	4.075	11.3548583984375	2082.400390625	-864.0657348632815	-136.517822265625	2096.425537109375	-997.4191894531252	-130.6793823242188	2087.07470703125	-857.9389648437502	-211.5989379882813	1926.571044921875	-931.077575683594	-296.6027832031251	1644.149291992188	-924.2883300781252	-77.14083862304689	1864.8701171875	-933.2435302734377	-152.2417602539063	1914.827758789063	-1076.578369140625	-195.2023315429688	1791.302856445313	-1195.071044921875	-189.4402770996094	1745.374389648438	-1177.574340820313	-219.7557525634766	1738.739868164063	-1228.446899414063	-271.2248535156251	1696.197387695313	-1280.8134765625	-333.2532958984376	1691.527954101563	-1248.949096679688	-254.8948364257813	1477.4931640625	-1138.9765625	-234.4885406494141	1456.36474609375	-1200.24560546875	-217.0247802734376	1442.118896484375	-1100.547607421875	-144.9231109619141	1913.578735351563	-800.4854125976565	-241.0464935302735	1808.684326171875	-659.7725830078126	-210.4601135253907	1768.778930664063	-655.4956054687501	-254.6612701416016	1753.250366210938	-618.4495849609376	-264.5951843261719	1679.313598632813	-584.8082885742189	-326.7722473144532	1681.9052734375	-609.4196777343751	-243.0198059082032	1457.529907226563	-715.5321655273439	-212.1703796386719	1439.178955078125	-662.2199096679689	-198.8244781494141	1420.661376953125	-754.5913085937501	-198.2125244140626	1428.822998046875	-1035.924926757813	-330.7445983886719	1513.90380859375	-923.440124511719	-345.0106201171876	1483.062133789063	-951.1463012695315	-339.5545349121094	1483.222534179688	-895.8591308593752	-263.3632202148438	1173.824096679688	-1130.946411132813	-219.4936218261719	1101.006591796875	-1137.745483398438	-173.3882141113282	1109.433837890625	-1125.672729492188	-240.209457397461	1043.783203125	-1130.487670898438	-235.6750640869141	945.2864990234377	-1126.228881835938	-183.2439117431641	804.6342773437502	-1117.019409179688	-246.3491363525391	766.4824829101564	-1164.199829101563	-206.5049591064454	760.8127441406251	-1148.819702148438	-202.0404205322266	677.5160522460939	-1125.9013671875	-277.8240661621094	546.5335083007814	-1150.995727539063	-241.6443634033204	547.4268188476564	-1075.743530273438	-330.4782714843751	513.2924804687501	-1096.320922851563	-120.7990036010742	456.9951782226564	-1108.591674804688	-123.9899597167969	453.9726867675782	-1148.0361328125	-177.1328430175782	433.0111694335939	-1188.510620117188	-259.1008911132813	1235.787475585938	-731.6651611328126	-222.6736602783204	1179.052490234375	-723.2773437500001	-191.4354858398438	1179.474853515625	-738.4215698242189	-247.3063354492188	1102.332885742188	-716.7235107421876	-277.1055603027344	939.145446777344	-730.0217895507814	-222.3842010498047	755.7114257812501	-743.3812255859376	-287.2852172851563	681.9729003906251	-691.1790771484376	-245.9199218750001	678.1624755859376	-711.2821044921876	-243.8783264160157	629.4784545898439	-744.8167114257814	-314.0491943359376	544.0944213867189	-706.7266235351564	-275.6074523925782	540.9532470703126	-772.8425292968752	-361.5765075683594	515.0530395507814	-767.0422973632814	-166.1032409667969	434.3528442382814	-725.1782836914064	-175.5225830078125	441.4536132812501	-682.4055175781251	-230.4938354492188	432.446014404297	-645.5630493164064	-220.1903076171876	1425.8935546875	-733.1720581054689	
817	4.08	10.43947696685791	2086.76220703125	-864.3380126953127	-136.6904449462891	2100.829833984375	-997.673278808594	-131.0612182617188	2091.6015625	-858.1868896484377	-211.7167663574219	1931.164428710938	-931.5418701171877	-296.4181518554688	1648.8125	-924.1963500976565	-77.33797454833986	1869.438598632813	-933.194763183594	-152.2910766601563	1919.150146484375	-1076.592407226563	-195.1859741210938	1795.902954101563	-1195.330810546875	-189.2407379150391	1749.880004882813	-1178.039794921875	-219.4057922363282	1743.453002929688	-1228.961547851563	-270.8765563964844	1700.526489257813	-1281.168334960938	-332.8722839355469	1695.800659179688	-1249.529174804688	-254.8267211914063	1482.008422851563	-1139.156982421875	-234.4490356445313	1460.686889648438	-1200.2568359375	-216.6725006103516	1446.681274414063	-1100.285766601563	-145.8105773925782	1918.359619140625	-800.6486816406252	-241.855941772461	1813.403442382813	-660.1695556640626	-211.0020599365235	1773.924682617188	-655.6502075195314	-255.4161376953126	1757.91455078125	-618.7915039062501	-265.0978698730469	1684.0390625	-584.9711303710939	-327.3439331054688	1686.40380859375	-609.8334350585939	-243.0133361816407	1461.865112304688	-715.2932128906251	-212.5816802978516	1443.57177734375	-661.9290771484376	-198.7955017089844	1424.77001953125	-754.1275634765626	-198.0629425048829	1433.183349609375	-1035.608642578125	-330.6727905273438	1518.062866210938	-923.200134277344	-344.9671325683594	1487.201049804688	-950.8956298828127	-339.5526428222657	1487.306030273438	-895.492858886719	-264.2391357421876	1178.192016601563	-1130.332641601563	-220.3600006103516	1105.1513671875	-1137.56298828125	-174.4369659423828	1113.709716796875	-1126.141479492188	-241.3556671142579	1048.308349609375	-1130.145629882813	-236.2478027343751	949.8082275390627	-1126.280029296875	-183.3066864013672	809.0686645507815	-1117.269409179688	-246.930892944336	771.2447509765627	-1164.134643554688	-206.6858520507813	765.3829956054689	-1149.243530273438	-202.2818603515626	681.9729003906251	-1126.43994140625	-277.8181152343751	550.8346557617189	-1151.35986328125	-241.5608978271485	551.9650268554689	-1076.347290039063	-330.2915954589844	517.5080566406251	-1096.321655273438	-120.5390853881836	462.0133056640626	-1111.0234375	-124.3813934326172	458.8135375976564	-1150.127685546875	-177.7870025634766	437.587371826172	-1190.200439453125	-258.3874206542969	1240.009643554688	-731.4608764648439	-221.9037322998047	1183.129760742188	-723.2501220703126	-190.8892974853516	1183.522705078125	-738.6470336914064	-246.4628906250001	1106.28271484375	-716.2642822265626	-276.5738220214844	943.4508056640627	-729.4488525390626	-222.2364044189454	759.9954833984376	-742.9065551757814	-287.1535949707032	686.2982177734376	-690.3584594726564	-246.0060272216797	682.5936279296876	-710.6835937500001	-243.8988189697266	633.6425170898439	-744.1836547851564	-314.1739807128907	548.8482055664064	-705.7284545898439	-276.0810241699219	545.2767944335939	-771.9863891601565	-362.0569152832032	519.6405639648439	-765.6057128906251	-167.0535888671875	438.0664672851564	-724.4714355468751	-176.2782592773438	445.4248657226564	-681.6884155273439	-230.9443054199219	436.9807434082032	-644.5071411132814	-219.9056243896485	1429.893920898438	-734.1187133789064	
818	4.085	9.922073364257814	2090.98583984375	-864.4771118164065	-137.0877990722657	2105.104736328125	-998.0728149414065	-131.4903564453125	2096.0751953125	-858.4914550781252	-212.0647277832032	1935.487670898438	-931.8907470703127	-296.3321838378907	1653.356689453125	-924.1712646484377	-77.54797363281251	1873.749633789063	-933.1653442382815	-152.5763244628907	1923.175537109375	-1076.644897460938	-194.9634704589844	1800.047729492188	-1195.414184570313	-188.9550170898438	1754.01123046875	-1178.235229492188	-219.0699005126954	1747.568237304688	-1229.135375976563	-270.2260742187501	1704.568969726563	-1281.482543945313	-332.4433593750001	1699.806762695313	-1250.0283203125	-254.4393615722657	1486.108154296875	-1139.089721679688	-234.2357025146485	1464.595825195313	-1200.11328125	-216.4808044433594	1450.79296875	-1100.462280273438	-146.2645568847657	1922.619873046875	-800.8535766601565	-242.6140747070313	1817.7177734375	-660.4265136718751	-211.7756652832032	1777.922973632813	-655.6931152343751	-256.3043212890626	1762.083984375	-619.0285034179689	-266.3406372070313	1687.959838867188	-585.0340576171876	-328.0302734375001	1690.723999023438	-610.1893310546876	-243.3016815185547	1465.929931640625	-715.3672485351564	-213.1862030029297	1447.66748046875	-661.6961669921876	-198.4613952636719	1428.755249023438	-753.8139648437501	-197.7601470947266	1437.286865234375	-1035.408813476563	-330.5249633789063	1521.969482421875	-922.9329223632815	-344.9313049316407	1491.240966796875	-950.531677246094	-339.3201904296876	1491.108520507813	-895.1896972656252	-264.7115783691407	1182.27734375	-1129.808837890625	-221.285385131836	1109.29150390625	-1137.544555664063	-175.2337341308594	1117.816284179688	-1126.683837890625	-242.1971282958985	1052.368530273438	-1129.962280273438	-236.7274627685547	954.056335449219	-1126.3203125	-183.5247650146485	813.2263793945315	-1117.6064453125	-246.7009735107422	775.2728271484377	-1164.934814453125	-206.8011627197266	769.538269042969	-1149.602661132813	-202.4380645751954	686.1546020507814	-1126.9169921875	-278.2870788574219	555.0586547851564	-1151.843872070313	-241.5648193359376	556.1203613281251	-1077.00732421875	-323.9173583984376	518.0798950195314	-1092.776245117188	-120.8629302978516	466.1622314453126	-1113.108276367188	-125.2444076538086	462.8960266113282	-1152.309448242188	-179.1314086914063	441.9686889648439	-1191.745361328125	-257.3814697265626	1244.003662109375	-731.2581787109376	-220.7789154052735	1187.05322265625	-723.1868286132814	-189.7355499267578	1187.416137695313	-738.7590332031251	-245.3440704345704	1110.337646484375	-715.8919067382814	-276.2533569335938	947.5922851562502	-728.9866333007814	-221.9496002197266	763.7924804687501	-742.4695434570314	-287.0178527832032	689.7747802734376	-689.3777465820314	-245.9965209960938	686.6387939453126	-710.0451660156251	-244.1927795410157	637.7160644531251	-743.3625488281251	-314.5126953125001	553.2081909179689	-704.7241210937501	-276.6535644531251	549.3124389648439	-771.2370605468752	-362.6830444335938	524.1213378906251	-764.6403808593751	-168.1873474121094	441.7051391601564	-723.6898803710939	-177.4556579589844	448.666961669922	-681.0083618164064	-231.8121795654297	441.1473083496095	-643.4777832031251	-218.6165161132813	1433.1708984375	-735.7993774414064	
